<?xml version="1.0" standalone="no"?><svg xmlns="http://www.w3.org/2000/svg" viewBox="0 0 1440 320"><path fill="#0099ff" fill-opacity="1" d="M0,64L30,96C60,128,120,192,180,186.7C240,181,300,107,360,101.3C420,96,480,160,540,170.7C600,181,660,139,720,128C780,117,840,139,900,149.3C960,160,1020,160,1080,154.7C1140,149,1200,139,1260,144C1320,149,1380,171,1410,181.3L1440,192L1440,320L1410,320C1380,320,1320,320,1260,320C1200,320,1140,320,1080,320C1020,320,960,320,900,320C840,320,780,320,720,320C660,320,600,320,540,320C480,320,420,320,360,320C300,320,240,320,180,320C120,320,60,320,30,320L0,320Z"></path></svg>